<svg width="249" height="37" viewBox="0 0 249 37" fill="none" xmlns="http://www.w3.org/2000/svg">
<path d="M74.106 35.1843L67.6608 23.3955C67.6021 23.2918 67.5173 23.2054 67.4148 23.1449C67.3123 23.0843 67.1958 23.0518 67.0767 23.0505H61.1629C60.9864 23.0505 60.8171 23.1206 60.6923 23.2456C60.5674 23.3705 60.4973 23.5399 60.4973 23.7166V34.8632C60.4973 34.9507 60.48 35.0373 60.4465 35.1181C60.4131 35.199 60.3641 35.2724 60.3023 35.3342C60.2405 35.3961 60.1672 35.4452 60.0865 35.4786C60.0057 35.5121 59.919 35.5293 59.8316 35.5293H54.684C54.507 35.5293 54.3373 35.4593 54.2117 35.3345C54.0861 35.2098 54.0149 35.0403 54.0137 34.8632V2.78429C54.0149 2.60718 54.0861 2.43776 54.2117 2.31298C54.3373 2.18819 54.507 2.11816 54.684 2.11816H68.6952C75.9641 2.11816 80.6663 5.80336 80.6663 12.3878C80.6663 16.926 78.0949 20.1081 74.4701 21.7374C74.3855 21.775 74.3098 21.8302 74.2482 21.8994C74.1866 21.9686 74.1405 22.0501 74.1128 22.1385C74.0852 22.2269 74.0766 22.3203 74.0878 22.4122C74.099 22.5042 74.1297 22.5927 74.1778 22.6719L81.0685 34.5278C81.1276 34.6293 81.159 34.7447 81.1592 34.8622C81.1594 34.9798 81.1283 35.0953 81.0694 35.197C81.0106 35.2987 80.9261 35.383 80.8241 35.4414C80.7222 35.4998 80.6065 35.5301 80.4891 35.5293H74.6903C74.5708 35.5306 74.4531 35.4991 74.3501 35.4383C74.2472 35.3774 74.1628 35.2896 74.106 35.1843ZM68.6472 17.7407C71.7885 17.7407 74.0485 15.5315 74.0485 12.4693C74.0485 9.67066 71.8891 7.55731 68.6952 7.55731H61.1629C60.9864 7.55731 60.8171 7.62748 60.6923 7.7524C60.5674 7.87732 60.4973 8.04675 60.4973 8.22341V17.065C60.4973 17.2417 60.5674 17.4111 60.6923 17.536C60.8171 17.661 60.9864 17.7311 61.1629 17.7311L68.6472 17.7407Z" fill="#3764E4"/>
<path d="M90.0138 24.8667C89.9145 24.8666 89.8164 24.8888 89.7269 24.9315C89.6373 24.9742 89.5585 25.0365 89.4961 25.1137C89.4337 25.1908 89.3892 25.281 89.3661 25.3776C89.343 25.4741 89.3419 25.5746 89.3626 25.6717C90.0665 28.8058 92.5182 30.5694 95.5588 30.5694C96.6587 30.6028 97.749 30.3566 98.7279 29.8538C99.7069 29.3509 100.542 28.6079 101.157 27.694C101.217 27.6006 101.3 27.5237 101.398 27.4702C101.496 27.4167 101.605 27.3882 101.717 27.3874H106.764C106.871 27.3869 106.977 27.4125 107.072 27.462C107.168 27.5114 107.25 27.5832 107.312 27.6713C107.373 27.7593 107.413 27.861 107.426 27.9676C107.44 28.0742 107.428 28.1826 107.391 28.2835C106.76 29.9897 105.73 31.5203 104.388 32.748C103.047 33.9758 101.431 34.8652 99.6767 35.3424C90.0184 38.2177 80.6666 29.472 83.2428 19.7342C84.7033 14.228 89.5206 10.5332 95.5588 10.5332C102.871 10.5332 108.176 15.9388 108.176 23.3092C108.176 23.6391 108.157 23.9687 108.119 24.2964C108.099 24.4586 108.02 24.6078 107.897 24.7156C107.775 24.8234 107.617 24.8823 107.453 24.881L90.0138 24.8667ZM100.73 21.0329C100.834 21.0318 100.936 21.0068 101.028 20.9599C101.12 20.9129 101.2 20.8452 101.261 20.7622C101.323 20.6791 101.365 20.5829 101.383 20.481C101.401 20.3792 101.396 20.2745 101.367 20.1751C100.615 17.501 98.2212 15.9244 95.4583 15.9244C94.1364 15.8811 92.8368 16.2736 91.7596 17.0416C90.6825 17.8096 89.8874 18.9106 89.4966 20.1751C89.4656 20.2746 89.4585 20.3799 89.476 20.4826C89.4935 20.5853 89.535 20.6824 89.5971 20.766C89.6592 20.8496 89.74 20.9174 89.8333 20.9638C89.9264 21.0101 90.0294 21.0338 90.1335 21.0329H100.73Z" fill="#3764E4"/>
<path d="M112.055 34.8632V2.78429C112.055 2.60762 112.125 2.43819 112.25 2.31327C112.375 2.18835 112.544 2.11816 112.72 2.11816H117.576C117.752 2.11816 117.922 2.18835 118.047 2.31327C118.171 2.43819 118.241 2.60762 118.241 2.78429V34.8632C118.241 35.0399 118.171 35.2093 118.047 35.3342C117.922 35.4591 117.752 35.5293 117.576 35.5293H112.72C112.544 35.5293 112.375 35.4591 112.25 35.3342C112.125 35.2093 112.055 35.0399 112.055 34.8632Z" fill="#3764E4"/>
<path d="M129.394 24.867C129.294 24.8687 129.195 24.8927 129.106 24.9375C129.016 24.9822 128.937 25.0464 128.876 25.1255C128.814 25.2046 128.771 25.2964 128.75 25.3943C128.728 25.4922 128.729 25.5937 128.752 25.6913C129.456 28.8254 131.913 30.5889 134.948 30.5889C136.048 30.6232 137.139 30.3774 138.118 29.8745C139.097 29.3716 139.933 28.628 140.546 27.7136C140.608 27.621 140.691 27.5448 140.789 27.4914C140.886 27.438 140.995 27.409 141.106 27.4069H146.158C146.265 27.4075 146.371 27.4339 146.465 27.4836C146.56 27.5334 146.642 27.6051 146.703 27.6928C146.765 27.7806 146.804 27.8817 146.818 27.9879C146.833 28.0941 146.822 28.2021 146.786 28.303C146.152 30.0082 145.122 31.5378 143.781 32.7654C142.439 33.9929 140.825 34.883 139.071 35.3619C129.413 38.2372 120.061 29.4915 122.637 19.7537C124.098 14.2475 128.915 10.5527 134.948 10.5527C142.265 10.5527 147.571 15.9583 147.571 23.3287C147.571 23.6586 147.552 23.9883 147.513 24.3159C147.494 24.4781 147.415 24.6273 147.292 24.7351C147.169 24.8429 147.011 24.9018 146.848 24.9006L129.394 24.867ZM140.106 21.0333C140.209 21.0329 140.312 21.0085 140.404 20.9618C140.497 20.9151 140.578 20.8476 140.64 20.7644C140.702 20.6812 140.745 20.5848 140.763 20.4826C140.782 20.3804 140.776 20.2752 140.747 20.1755C139.995 17.5014 137.596 15.9248 134.838 15.9248C133.516 15.8812 132.216 16.2735 131.138 17.0415C130.06 17.8095 129.264 18.9106 128.872 20.1755C128.842 20.2753 128.836 20.3807 128.854 20.4834C128.872 20.586 128.914 20.6829 128.976 20.7663C129.039 20.8498 129.12 20.9174 129.213 20.9638C129.307 21.0101 129.409 21.0339 129.513 21.0333H140.106Z" fill="#3764E4"/>
<path d="M172.327 35.5295C172.187 35.5296 172.051 35.4857 171.938 35.404C171.824 35.3223 171.739 35.2069 171.695 35.0742L166.787 20.2999H166.638L161.543 35.0838C161.497 35.2143 161.411 35.3272 161.298 35.407C161.185 35.4868 161.05 35.5296 160.911 35.5295H156.238C156.094 35.5306 155.954 35.4843 155.838 35.3977C155.723 35.3111 155.64 35.189 155.601 35.0503L148.725 11.8129C148.696 11.7131 148.69 11.608 148.709 11.5058C148.728 11.4036 148.77 11.3071 148.832 11.224C148.894 11.1408 148.975 11.0732 149.068 11.0266C149.16 10.9799 149.263 10.9554 149.366 10.9551H154.404C154.548 10.9545 154.689 11.0009 154.805 11.0874C154.921 11.1738 155.005 11.2956 155.046 11.4343L159.47 26.8748H159.571L164.623 11.4104C164.664 11.2732 164.748 11.1529 164.863 11.0667C164.977 10.9806 165.116 10.9331 165.259 10.9312H168.654C168.798 10.9323 168.937 10.9795 169.052 11.0658C169.166 11.152 169.25 11.2728 169.291 11.4104L174.104 27.009H174.152L178.772 11.42C178.814 11.2816 178.898 11.1603 179.014 11.0739C179.129 10.9876 179.27 10.9409 179.414 10.9407H184.298C184.403 10.9404 184.506 10.9648 184.6 11.012C184.694 11.0592 184.775 11.1279 184.837 11.2124C184.899 11.297 184.94 11.395 184.957 11.4985C184.974 11.602 184.967 11.7081 184.935 11.8081L177.69 35.0455C177.65 35.1834 177.566 35.3046 177.451 35.391C177.337 35.4773 177.197 35.5242 177.053 35.5247L172.327 35.5295Z" fill="#3764E4"/>
<path d="M189.087 7.00159C186.429 4.46652 188.608 0.862793 191.419 0.862793C192.349 0.88354 193.236 1.26281 193.894 1.92162C194.553 2.58042 194.932 3.46797 194.952 4.39943C194.95 4.96316 194.814 5.5183 194.556 6.01907C194.297 6.51983 193.923 6.95187 193.465 7.27953C193.006 7.60719 192.477 7.82109 191.919 7.90358C191.362 7.98607 190.793 7.93479 190.26 7.75397C189.819 7.59043 189.419 7.33381 189.087 7.00159ZM188.277 34.8874V11.6261C188.277 11.4494 188.348 11.28 188.472 11.155C188.597 11.0301 188.767 10.9599 188.943 10.9599H193.794C193.971 10.9599 194.14 11.03 194.266 11.1547C194.392 11.2795 194.463 11.449 194.464 11.6261V34.8634C194.463 35.0405 194.392 35.2099 194.266 35.3347C194.14 35.4595 193.971 35.5295 193.794 35.5295H188.943C188.854 35.5314 188.766 35.5156 188.684 35.483C188.601 35.4504 188.526 35.4016 188.463 35.3396C188.4 35.2775 188.349 35.2034 188.315 35.1217C188.281 35.0399 188.263 34.9521 188.263 34.8634L188.277 34.8874Z" fill="#3764E4"/>
<path d="M215.385 18.383C215.256 18.3844 215.13 18.3473 215.023 18.2764C214.915 18.2055 214.831 18.1042 214.782 17.9853C214.025 16.193 212.167 15.3352 209.323 15.3352C206.675 15.3352 204.659 16.1211 204.659 17.8415C204.659 22.557 221.256 17.7409 221.256 27.7182C221.256 32.9273 216.199 35.9225 209.62 35.9225C204.046 35.9225 199.229 34.0056 198.204 28.6623C198.186 28.5656 198.189 28.466 198.213 28.3707C198.238 28.2753 198.283 28.1866 198.346 28.1106C198.408 28.0347 198.487 27.9735 198.576 27.9314C198.665 27.8892 198.762 27.8672 198.86 27.8668H203.649C203.779 27.8653 203.906 27.9017 204.016 27.9715C204.125 28.0412 204.213 28.1414 204.266 28.2597C205.167 30.4114 207.034 31.159 209.907 31.159C213.101 31.159 215.112 30.1239 215.112 28.3556C215.112 23.3957 198.42 28.3556 198.42 18.4789C198.42 13.7634 202.595 10.519 209.711 10.519C214.978 10.519 219.685 12.6516 220.643 17.5875C220.661 17.6846 220.658 17.7846 220.633 17.8803C220.608 17.976 220.563 18.065 220.5 18.141C220.437 18.217 220.357 18.2781 220.268 18.32C220.178 18.3618 220.081 18.3833 219.982 18.383H215.385Z" fill="#3764E4"/>
<path d="M230.837 24.8667C230.738 24.8666 230.64 24.8888 230.551 24.9315C230.461 24.9742 230.382 25.0365 230.32 25.1137C230.257 25.1908 230.213 25.281 230.19 25.3776C230.167 25.4741 230.166 25.5746 230.186 25.6717C230.89 28.8058 233.342 30.5694 236.383 30.5694C237.482 30.6028 238.573 30.3566 239.552 29.8538C240.531 29.3509 241.366 28.6079 241.98 27.694C242.041 27.6006 242.124 27.5237 242.222 27.4702C242.319 27.4167 242.429 27.3882 242.54 27.3874H247.587C247.695 27.3869 247.801 27.4125 247.896 27.462C247.992 27.5114 248.074 27.5832 248.135 27.6713C248.197 27.7593 248.236 27.861 248.25 27.9676C248.264 28.0742 248.252 28.1826 248.215 28.2835C247.583 29.9897 246.554 31.5203 245.212 32.748C243.87 33.9758 242.255 34.8652 240.501 35.3424C230.842 38.2177 221.49 29.472 224.071 19.7342C225.508 14.228 230.344 10.5332 236.383 10.5332C243.695 10.5332 249 15.9388 249 23.3092C249 23.6391 248.981 23.9687 248.943 24.2964C248.924 24.4582 248.846 24.6073 248.724 24.7152C248.602 24.8231 248.445 24.8821 248.282 24.881L230.837 24.8667ZM241.554 21.0329C241.658 21.0328 241.76 21.0085 241.853 20.9618C241.945 20.9151 242.026 20.8474 242.088 20.7641C242.15 20.6807 242.191 20.5841 242.209 20.4818C242.227 20.3796 242.221 20.2745 242.191 20.1751C241.439 17.501 239.045 15.9244 236.282 15.9244C234.96 15.8811 233.661 16.2736 232.584 17.0416C231.506 17.8096 230.711 18.9106 230.32 20.1751C230.289 20.2746 230.282 20.3799 230.3 20.4826C230.317 20.5853 230.359 20.6824 230.421 20.766C230.483 20.8496 230.564 20.9174 230.657 20.9638C230.75 21.0101 230.853 21.0338 230.957 21.0329H241.554Z" fill="#3764E4"/>
<path d="M31.6228 0H6.37799C3.20448 0 0.631836 2.57465 0.631836 5.75063V31.0151C0.631836 34.1911 3.20448 36.7657 6.37799 36.7657H31.6228C34.7963 36.7657 37.3689 34.1911 37.3689 31.0151V5.75063C37.3689 2.57465 34.7963 0 31.6228 0Z" fill="#3764E4"/>
<path fill-rule="evenodd" clip-rule="evenodd" d="M19.0007 10.7918C14.8116 10.7918 11.4157 14.1903 11.4157 18.3826C11.4157 22.5749 14.8116 25.9734 19.0007 25.9734C23.1897 25.9734 26.5856 22.5749 26.5856 18.3826C26.5856 14.1903 23.1897 10.7918 19.0007 10.7918ZM7.58496 18.3826C7.58496 12.073 12.6959 6.95801 19.0007 6.95801C25.3054 6.95801 30.4163 12.073 30.4163 18.3826C30.4163 24.6922 25.3054 29.8072 19.0007 29.8072C12.6959 29.8072 7.58496 24.6922 7.58496 18.3826Z" fill="white"/>
<path fill-rule="evenodd" clip-rule="evenodd" d="M38.0011 10.7918C35.9894 10.7918 34.0603 11.5915 32.6378 13.0151C31.2154 14.4386 30.4162 16.3694 30.4162 18.3826C30.4162 20.3958 31.2154 22.3266 32.6378 23.7501C34.0603 25.1737 35.9894 25.9734 38.0011 25.9734V29.8072C34.9734 29.8072 32.0699 28.6035 29.929 26.461C27.7882 24.3185 26.5854 21.4126 26.5854 18.3826C26.5854 15.3526 27.7882 12.4467 29.929 10.3042C32.0699 8.16168 34.9734 6.95801 38.0011 6.95801V10.7918Z" fill="white"/>
<path fill-rule="evenodd" clip-rule="evenodd" d="M0 6.95801C3.02765 6.95801 5.93118 8.16168 8.07202 10.3042C10.2129 12.4467 11.4156 15.3526 11.4156 18.3826C11.4156 21.4126 10.2129 24.3185 8.07202 26.461C5.93118 28.6035 3.02765 29.8072 0 29.8072V25.9734C2.01163 25.9734 3.9408 25.1737 5.36326 23.7501C6.78572 22.3266 7.58485 20.3958 7.58485 18.3826C7.58485 16.3694 6.78572 14.4386 5.36326 13.0151C3.9408 11.5915 2.01163 10.7918 0 10.7918V6.95801Z" fill="white"/>
<path fill-rule="evenodd" clip-rule="evenodd" d="M19.0008 12.6133C19.662 12.6133 20.1979 13.1497 20.1979 13.8113V22.9548C20.1979 23.6165 19.662 24.1529 19.0008 24.1529C18.3397 24.1529 17.8037 23.6165 17.8037 22.9548V13.8113C17.8037 13.1497 18.3397 12.6133 19.0008 12.6133Z" fill="#FFD93B"/>
<path d="M23.8226 33.5934L20.686 26.9801L24.1481 25.3364L27.2847 31.9544C27.3347 32.0591 27.3634 32.1727 27.3693 32.2886C27.3752 32.4044 27.3582 32.5204 27.319 32.6296C27.2798 32.7388 27.2193 32.8391 27.1411 32.9247C27.0629 33.0104 26.9685 33.0797 26.8633 33.1285L25.0006 34.0151C24.7884 34.1152 24.5452 34.127 24.3244 34.0479C24.1036 33.9688 23.9232 33.8054 23.8226 33.5934Z" fill="white"/>
<path fill-rule="evenodd" clip-rule="evenodd" d="M23.2386 14.4819C23.8998 14.4819 24.4357 15.0183 24.4357 15.68V18.2103C24.4357 18.8719 23.8998 19.4083 23.2386 19.4083C22.5775 19.4083 22.0415 18.8719 22.0415 18.2103V15.68C22.0415 15.0183 22.5775 14.4819 23.2386 14.4819Z" fill="#53CF78"/>
<path fill-rule="evenodd" clip-rule="evenodd" d="M14.763 15.9199C15.4242 15.9199 15.9601 16.4563 15.9601 17.118V19.6482C15.9601 20.3099 15.4242 20.8463 14.763 20.8463C14.1019 20.8463 13.5659 20.3099 13.5659 19.6482V17.118C13.5659 16.4563 14.1019 15.9199 14.763 15.9199Z" fill="#FFC1D7"/>
<path fill-rule="evenodd" clip-rule="evenodd" d="M4.36704 14.3384C5.02819 14.3384 5.56415 14.8748 5.56415 15.5364V18.0667C5.56415 18.7284 5.02819 19.2648 4.36704 19.2648C3.70589 19.2648 3.16992 18.7284 3.16992 18.0667V15.5364C3.16992 14.8748 3.70589 14.3384 4.36704 14.3384Z" fill="#53CF78"/>
<path fill-rule="evenodd" clip-rule="evenodd" d="M33.95 17.2134C34.6112 17.2134 35.1472 17.7498 35.1472 18.4114V20.9417C35.1472 21.6034 34.6112 22.1398 33.95 22.1398C33.2889 22.1398 32.7529 21.6034 32.7529 20.9417V18.4114C32.7529 17.7498 33.2889 17.2134 33.95 17.2134Z" fill="#FFC1D7"/>
</svg>
