<svg width="38" height="37" viewBox="0 0 38 37" fill="none" xmlns="http://www.w3.org/2000/svg">
<path d="M31.6228 0H6.37799C3.20448 0 0.631836 2.57465 0.631836 5.75063V31.0151C0.631836 34.1911 3.20448 36.7657 6.37799 36.7657H31.6228C34.7963 36.7657 37.3689 34.1911 37.3689 31.0151V5.75063C37.3689 2.57465 34.7963 0 31.6228 0Z" fill="#3764E4"/>
<path fill-rule="evenodd" clip-rule="evenodd" d="M19.0007 10.7918C14.8116 10.7918 11.4157 14.1903 11.4157 18.3826C11.4157 22.5749 14.8116 25.9734 19.0007 25.9734C23.1897 25.9734 26.5856 22.5749 26.5856 18.3826C26.5856 14.1903 23.1897 10.7918 19.0007 10.7918ZM7.58496 18.3826C7.58496 12.073 12.6959 6.95801 19.0007 6.95801C25.3054 6.95801 30.4163 12.073 30.4163 18.3826C30.4163 24.6922 25.3054 29.8072 19.0007 29.8072C12.6959 29.8072 7.58496 24.6922 7.58496 18.3826Z" fill="white"/>
<path fill-rule="evenodd" clip-rule="evenodd" d="M38.0011 10.7918C35.9894 10.7918 34.0603 11.5915 32.6378 13.0151C31.2154 14.4386 30.4162 16.3694 30.4162 18.3826C30.4162 20.3958 31.2154 22.3266 32.6378 23.7501C34.0603 25.1737 35.9894 25.9734 38.0011 25.9734V29.8072C34.9734 29.8072 32.0699 28.6035 29.929 26.461C27.7882 24.3185 26.5854 21.4126 26.5854 18.3826C26.5854 15.3526 27.7882 12.4467 29.929 10.3042C32.0699 8.16168 34.9734 6.95801 38.0011 6.95801V10.7918Z" fill="white"/>
<path fill-rule="evenodd" clip-rule="evenodd" d="M0 6.95801C3.02765 6.95801 5.93118 8.16168 8.07202 10.3042C10.2129 12.4467 11.4156 15.3526 11.4156 18.3826C11.4156 21.4126 10.2129 24.3185 8.07202 26.461C5.93118 28.6035 3.02765 29.8072 0 29.8072V25.9734C2.01163 25.9734 3.9408 25.1737 5.36326 23.7501C6.78572 22.3266 7.58485 20.3958 7.58485 18.3826C7.58485 16.3694 6.78572 14.4386 5.36326 13.0151C3.9408 11.5915 2.01163 10.7918 0 10.7918V6.95801Z" fill="white"/>
<path fill-rule="evenodd" clip-rule="evenodd" d="M19.0008 12.6133C19.662 12.6133 20.1979 13.1497 20.1979 13.8113V22.9548C20.1979 23.6165 19.662 24.1529 19.0008 24.1529C18.3397 24.1529 17.8037 23.6165 17.8037 22.9548V13.8113C17.8037 13.1497 18.3397 12.6133 19.0008 12.6133Z" fill="#FFD93B"/>
<path d="M23.8226 33.5934L20.686 26.9801L24.1481 25.3364L27.2847 31.9544C27.3347 32.0591 27.3634 32.1727 27.3693 32.2886C27.3752 32.4044 27.3582 32.5204 27.319 32.6296C27.2798 32.7388 27.2193 32.8391 27.1411 32.9247C27.0629 33.0104 26.9685 33.0797 26.8633 33.1285L25.0006 34.0151C24.7884 34.1152 24.5452 34.127 24.3244 34.0479C24.1036 33.9688 23.9232 33.8054 23.8226 33.5934Z" fill="white"/>
<path fill-rule="evenodd" clip-rule="evenodd" d="M23.2386 14.4819C23.8998 14.4819 24.4357 15.0183 24.4357 15.68V18.2103C24.4357 18.8719 23.8998 19.4083 23.2386 19.4083C22.5775 19.4083 22.0415 18.8719 22.0415 18.2103V15.68C22.0415 15.0183 22.5775 14.4819 23.2386 14.4819Z" fill="#53CF78"/>
<path fill-rule="evenodd" clip-rule="evenodd" d="M14.763 15.9199C15.4242 15.9199 15.9601 16.4563 15.9601 17.118V19.6482C15.9601 20.3099 15.4242 20.8463 14.763 20.8463C14.1019 20.8463 13.5659 20.3099 13.5659 19.6482V17.118C13.5659 16.4563 14.1019 15.9199 14.763 15.9199Z" fill="#FFC1D7"/>
<path fill-rule="evenodd" clip-rule="evenodd" d="M4.36704 14.3384C5.02819 14.3384 5.56415 14.8748 5.56415 15.5364V18.0667C5.56415 18.7284 5.02819 19.2648 4.36704 19.2648C3.70589 19.2648 3.16992 18.7284 3.16992 18.0667V15.5364C3.16992 14.8748 3.70589 14.3384 4.36704 14.3384Z" fill="#53CF78"/>
<path fill-rule="evenodd" clip-rule="evenodd" d="M33.95 17.2134C34.6112 17.2134 35.1472 17.7498 35.1472 18.4114V20.9417C35.1472 21.6034 34.6112 22.1398 33.95 22.1398C33.2889 22.1398 32.7529 21.6034 32.7529 20.9417V18.4114C32.7529 17.7498 33.2889 17.2134 33.95 17.2134Z" fill="#FFC1D7"/>
</svg>
